<svg width="40" height="40" viewBox="0 0 40 40" fill="none" xmlns="http://www.w3.org/2000/svg">
<path d="M31.25 18.25C32.0784 18.25 32.75 18.9216 32.75 19.75C32.75 26.2841 27.8347 31.6687 21.5 32.4111V35.5C21.5 36.3284 20.8284 37 20 37C19.1716 37 18.5 36.3284 18.5 35.5V32.4111C12.1653 31.6687 7.25 26.2841 7.25 19.75C7.25 18.9216 7.92157 18.25 8.75 18.25C9.57843 18.25 10.25 18.9216 10.25 19.75C10.25 25.1348 14.6152 29.5 20 29.5C25.3848 29.5 29.75 25.1348 29.75 19.75C29.75 18.9216 30.4216 18.25 31.25 18.25ZM20 3C23.7279 3 26.75 6.02208 26.75 9.75V19.5C26.75 23.2279 23.7279 26.25 20 26.25C16.2721 26.25 13.25 23.2279 13.25 19.5V9.75C13.25 6.02208 16.2721 3 20 3Z" fill="white"/>
</svg>
