<svg width="24" height="24" viewBox="0 0 24 24" fill="none" xmlns="http://www.w3.org/2000/svg">
<path d="M13 2C14.1046 2 15 2.89543 15 4V20C15 21.1046 14.1046 22 13 22H3C1.89543 22 1 21.1046 1 20V4C1 2.89543 1.89543 2 3 2H13ZM5 5C4.44772 5 4 5.44772 4 6V18C4 18.5523 4.44772 19 5 19C5.55228 19 6 18.5523 6 18V6C6 5.44772 5.55228 5 5 5Z" fill="#1B1B1B"/>
<path d="M21 2C22.1046 2 23 2.89543 23 4V17.459C22.9999 17.6665 22.9356 17.869 22.8154 18.0381L20.4072 21.4268C20.2079 21.7067 19.7921 21.7067 19.5928 21.4268L17.1846 18.0381C17.0644 17.869 17.0001 17.6665 17 17.459V4C17 2.89543 17.8954 2 19 2H21ZM19.5 6C18.9477 6 18.5 6.44772 18.5 7C18.5 7.55228 18.9477 8 19.5 8H20.5C21.0523 8 21.5 7.55228 21.5 7C21.5 6.44772 21.0523 6 20.5 6H19.5Z" fill="#1B1B1B"/>
</svg>
